<svg data-v-423bf9ae="" xmlns="http://www.w3.org/2000/svg" viewBox="0 0 181.75953182517313 60" class="font"><!----><!----><defs data-v-423bf9ae=""><linearGradient data-v-423bf9ae="" gradientTransform="rotate(25)" id="5340d989-4c05-4c92-b50a-b5f47958ecf3" x1="0%" y1="0%" x2="100%" y2="0%"><stop data-v-423bf9ae="" offset="0%" style="stop-color: rgb(8, 199, 214); stop-opacity: 1;"></stop><stop data-v-423bf9ae="" offset="100%" style="stop-color: rgb(2, 2, 62); stop-opacity: 1;"></stop></linearGradient></defs><g data-v-423bf9ae="" id="8778bcd8-f504-4d42-97fa-5102e1a71b3e" fill="url(#5340d989-4c05-4c92-b50a-b5f47958ecf3)" transform="matrix(5.865102354978818,0,0,5.865102354978818,-6.392965144955554,-19.002930970809608)"><path d="M2.61 13.33L1.57 13.33Q1.09 13.33 1.09 12.82L1.09 12.82L1.09 4.04Q1.09 3.53 1.57 3.53L1.57 3.53L4.74 3.53Q6.85 3.53 7.82 4.18Q8.79 4.83 8.79 6.30L8.79 6.30Q8.79 7.40 8.00 8.05Q7.22 8.70 6.01 8.91L6.01 8.91L6.01 8.92Q6.67 9.17 7 9.60Q7.33 10.04 7.55 10.37L7.55 10.37L9.05 12.74Q9.43 13.33 8.79 13.33L8.79 13.33L7.60 13.33Q7.23 13.33 6.99 12.93L6.99 12.93L5.61 10.62Q5.38 10.25 4.78 9.81Q4.18 9.37 3.60 9.37L3.60 9.37L3.09 9.37L3.09 12.82Q3.09 13.33 2.61 13.33L2.61 13.33ZM3.09 5.20L3.09 7.68L4.31 7.68Q5.68 7.68 6.26 7.37Q6.84 7.05 6.84 6.38L6.84 6.38Q6.84 5.64 6.28 5.42Q5.72 5.20 4.64 5.20L4.64 5.20L3.09 5.20ZM10.68 10.35L10.68 10.35L10.68 6.56Q10.68 6.15 11.09 6.15L11.09 6.15L12.18 6.15Q12.59 6.15 12.59 6.56L12.59 6.56L12.59 9.86Q12.59 11.35 12.80 11.74Q13.00 12.13 13.66 12.13L13.66 12.13Q14.36 12.13 14.72 11.57Q15.08 11.01 15.08 9.26L15.08 9.26L15.08 6.56Q15.08 6.15 15.49 6.15L15.49 6.15L16.58 6.15Q16.99 6.15 16.99 6.56L16.99 6.56L16.99 12.92Q16.99 13.33 16.58 13.33L16.58 13.33L15.50 13.33Q15.09 13.33 15.09 12.92L15.09 12.92L15.09 12.52L15.07 12.52Q14.75 13.06 14.27 13.27Q13.78 13.47 13.12 13.47L13.12 13.47Q12.07 13.47 11.38 12.80Q10.68 12.13 10.68 10.35ZM18.56 12.85L18.56 12.85Q18.22 12.61 18.38 12.34L18.38 12.34L18.72 11.70Q18.91 11.36 19.30 11.62L19.30 11.62Q19.69 11.88 20.22 12.00Q20.75 12.13 21.18 12.13L21.18 12.13Q21.49 12.13 21.76 12.07Q22.03 12.00 22.21 11.83Q22.39 11.65 22.39 11.31L22.39 11.31Q22.39 11.10 22.29 10.96Q22.18 10.81 22.00 10.74Q21.83 10.66 21.64 10.62L21.64 10.62Q21.39 10.55 20.91 10.41Q20.44 10.27 20.00 10.08L20.00 10.08Q19.64 9.92 19.29 9.64Q18.95 9.35 18.79 9.00Q18.63 8.65 18.63 8.14L18.63 8.14Q18.63 7.45 19.03 6.93Q19.43 6.41 20.06 6.21Q20.70 6.02 21.65 6.02L21.65 6.02Q22.29 6.02 22.90 6.20Q23.51 6.38 23.77 6.55L23.77 6.55Q24.18 6.81 23.97 7.10L23.97 7.10L23.56 7.71Q23.37 7.98 22.94 7.75L22.94 7.75Q22.62 7.57 22.31 7.46Q22.00 7.36 21.62 7.36L21.62 7.36Q21.36 7.36 21.12 7.41Q20.88 7.46 20.71 7.62Q20.54 7.77 20.54 8.01L20.54 8.01Q20.54 8.27 20.70 8.42Q20.85 8.57 21.05 8.63Q21.25 8.70 21.44 8.76L21.44 8.76Q21.82 8.89 22.21 9.00Q22.60 9.11 23.00 9.27L23.00 9.27Q23.35 9.41 23.68 9.66Q24.01 9.91 24.16 10.30Q24.31 10.69 24.31 11.19L24.31 11.19Q24.31 11.85 23.91 12.42Q23.52 12.99 22.87 13.23Q22.22 13.47 21.36 13.47L21.36 13.47Q20.39 13.47 19.71 13.33Q19.04 13.19 18.56 12.85ZM27.23 13.33L26.13 13.33Q25.72 13.33 25.72 12.92L25.72 12.92L25.72 3.65Q25.72 3.24 26.13 3.24L26.13 3.24L27.23 3.24Q27.64 3.24 27.64 3.65L27.64 3.65L27.64 6.41Q27.64 6.69 27.61 6.96L27.61 6.96L27.65 6.96Q27.97 6.42 28.45 6.22Q28.94 6.02 29.62 6.02L29.62 6.02Q30.69 6.02 31.38 6.69Q32.08 7.36 32.08 9.13L32.08 9.13L32.08 12.92Q32.08 13.33 31.67 13.33L31.67 13.33L30.58 13.33Q30.17 13.33 30.17 12.92L30.17 12.92L30.17 9.63Q30.17 8.13 29.96 7.75Q29.76 7.36 29.08 7.36L29.08 7.36Q28.36 7.36 28 7.91Q27.64 8.47 27.64 10.23L27.64 10.23L27.64 12.92Q27.64 13.33 27.23 13.33L27.23 13.33Z"></path></g><!----><!----></svg>